<svg width="16" height="16" viewBox="0 0 16 16" fill="none" xmlns="http://www.w3.org/2000/svg">
<g clip-path="url(#clip0_7_4529)">
<path d="M12.25 15.999H3.75C1.68225 15.999 0 14.3167 0 12.249V6.99052C0 5.8283 0.551719 4.71365 1.47581 4.0088L5.72581 0.767273C7.06484 -0.254008 8.93516 -0.254008 10.2742 0.767273L11.625 1.79665V0.998992C11.658 0.169742 12.8423 0.170367 12.875 0.998992V3.05871C12.875 3.2963 12.7403 3.51334 12.5273 3.6188C12.3144 3.72424 12.0601 3.6998 11.8712 3.55584L9.51631 1.76137C8.62344 1.08037 7.3765 1.08037 6.48384 1.76121L2.23384 5.00274C1.61781 5.47259 1.25 6.21568 1.25 6.99052V12.249C1.25 13.6275 2.3715 14.749 3.75 14.749H12.25C13.6285 14.749 14.75 13.6275 14.75 12.249V6.99052C14.75 6.20618 14.3863 5.46055 13.7772 4.99593C13.5028 4.78659 13.45 4.3944 13.6593 4.11996C13.8687 3.84549 14.2609 3.79271 14.5353 4.00205C15.4524 4.70155 16 5.81874 16 6.99052V12.249C16 14.3167 14.3177 15.999 12.25 15.999ZM6.75 7.21774C6.31853 7.21774 5.96875 7.56752 5.96875 7.99899C6.01003 9.03555 7.49034 9.03477 7.53125 7.99899C7.53125 7.56749 7.18147 7.21774 6.75 7.21774ZM10.0312 7.99896C9.98997 9.03552 8.50966 9.03474 8.46875 7.99896C8.51003 6.9624 9.99034 6.96321 10.0312 7.99896ZM7.53125 10.499C7.48997 11.5355 6.00966 11.5347 5.96875 10.499C6.01003 9.4624 7.49034 9.46321 7.53125 10.499ZM10.0312 10.499C9.98997 11.5355 8.50966 11.5347 8.46875 10.499C8.51003 9.4624 9.99034 9.46321 10.0312 10.499Z" fill="#9A9A9A"/>
</g>
<defs>
<clipPath id="clip0_7_4529">
<rect width="16" height="16" fill="white"/>
</clipPath>
</defs>
</svg>
