<svg width="171" height="30" viewBox="0 0 171 30" fill="none" xmlns="http://www.w3.org/2000/svg">
<rect y="11.5735" width="67" height="6" fill="#704ADD"/>
<path d="M82.512 23.3615C81.168 23.3615 79.88 23.1855 78.648 22.8335C77.416 22.4655 76.424 21.9935 75.672 21.4175L76.992 18.4895C77.712 19.0015 78.56 19.4255 79.536 19.7615C80.528 20.0815 81.528 20.2415 82.536 20.2415C83.304 20.2415 83.92 20.1695 84.384 20.0255C84.864 19.8655 85.216 19.6495 85.44 19.3775C85.664 19.1055 85.776 18.7935 85.776 18.4415C85.776 17.9935 85.6 17.6415 85.248 17.3855C84.896 17.1135 84.432 16.8975 83.856 16.7375C83.28 16.5615 82.64 16.4015 81.936 16.2575C81.248 16.0975 80.552 15.9055 79.848 15.6815C79.16 15.4575 78.528 15.1695 77.952 14.8175C77.376 14.4655 76.904 14.0015 76.536 13.4255C76.184 12.8495 76.008 12.1135 76.008 11.2175C76.008 10.2575 76.264 9.38555 76.776 8.60155C77.304 7.80155 78.088 7.16955 79.128 6.70555C80.184 6.22555 81.504 5.98555 83.088 5.98555C84.144 5.98555 85.184 6.11355 86.208 6.36955C87.232 6.60955 88.136 6.97755 88.92 7.47355L87.72 10.4255C86.936 9.97755 86.152 9.64955 85.368 9.44155C84.584 9.21755 83.816 9.10555 83.064 9.10555C82.312 9.10555 81.696 9.19355 81.216 9.36955C80.736 9.54555 80.392 9.77755 80.184 10.0655C79.976 10.3375 79.872 10.6575 79.872 11.0255C79.872 11.4575 80.048 11.8095 80.4 12.0815C80.752 12.3375 81.216 12.5455 81.792 12.7055C82.368 12.8655 83 13.0255 83.688 13.1855C84.392 13.3455 85.088 13.5295 85.776 13.7375C86.48 13.9455 87.12 14.2255 87.696 14.5775C88.272 14.9295 88.736 15.3935 89.088 15.9695C89.456 16.5455 89.64 17.2735 89.64 18.1535C89.64 19.0975 89.376 19.9615 88.848 20.7455C88.32 21.5295 87.528 22.1615 86.472 22.6415C85.432 23.1215 84.112 23.3615 82.512 23.3615ZM92.2967 23.0735V6.27355H96.1847V23.0735H92.2967ZM108.284 23.3615C106.956 23.3615 105.732 23.1535 104.612 22.7375C103.508 22.3055 102.54 21.6975 101.708 20.9135C100.892 20.1295 100.252 19.2095 99.7877 18.1535C99.3397 17.0975 99.1157 15.9375 99.1157 14.6735C99.1157 13.4095 99.3397 12.2495 99.7877 11.1935C100.252 10.1375 100.9 9.21755 101.732 8.43355C102.564 7.64955 103.54 7.04955 104.66 6.63355C105.78 6.20155 107.012 5.98555 108.356 5.98555C109.844 5.98555 111.18 6.23355 112.364 6.72955C113.564 7.22555 114.572 7.94555 115.388 8.88955L112.892 11.1935C112.284 10.5535 111.62 10.0815 110.9 9.77755C110.18 9.45755 109.396 9.29755 108.548 9.29755C107.732 9.29755 106.988 9.42555 106.316 9.68155C105.644 9.93755 105.06 10.3055 104.564 10.7855C104.084 11.2655 103.708 11.8335 103.436 12.4895C103.18 13.1455 103.052 13.8735 103.052 14.6735C103.052 15.4575 103.18 16.1775 103.436 16.8335C103.708 17.4895 104.084 18.0655 104.564 18.5615C105.06 19.0415 105.636 19.4095 106.292 19.6655C106.964 19.9215 107.7 20.0495 108.5 20.0495C109.268 20.0495 110.012 19.9295 110.732 19.6895C111.468 19.4335 112.18 19.0095 112.868 18.4175L115.076 21.2255C114.164 21.9135 113.1 22.4415 111.884 22.8095C110.684 23.1775 109.484 23.3615 108.284 23.3615ZM111.524 20.7215V14.4095H115.076V21.2255L111.524 20.7215ZM118.687 23.0735V6.27355H121.903L131.815 18.3695H130.255V6.27355H134.095V23.0735H130.903L120.967 10.9775H122.527V23.0735H118.687ZM144.867 23.0735V6.27355H148.755V23.0735H144.867ZM152.742 23.0735V6.27355H155.958L165.87 18.3695H164.31V6.27355H168.15V23.0735H164.958L155.022 10.9775H156.582V23.0735H152.742Z" fill="#704ADD"/>
</svg>
